<mxfile host="app.diagrams.net" modified="2024-01-09T11:52:19.596Z" agent="Mozilla/5.0 (Windows NT 10.0; Win64; x64) AppleWebKit/537.36 (KHTML, like Gecko) Chrome/120.0.0.0 Safari/537.36" version="22.1.17" etag="BIuOU1svfDNqDYRbVtDe" type="github">
  <diagram name="Sayfa -1" id="X30Q_EM13rvDgGrZ8FNu">
    <mxGraphModel>
      <root>
        <mxCell id="0" />
        <mxCell id="1" parent="0" />
      </root>
    </mxGraphModel>
  </diagram>
</mxfile>
